PathFileType	4	(X/Y/Z)	path1_23_0-642.trc
DataRate	CameraRate	NumFrames	NumMarkers	Units	OrigDataRate	OrigDataStartFrame	OrigNumFrames
30	30	5	22	m	30	481	642
Frame#	Time	Hip			RHip			RKnee			RAnkle			RBigToe			RSmallToe			RHeel			LHip			LKnee			LAnkle			LBigToe			LSmallToe			LHeel			Neck			Head			Nose			RShoulder			RElbow			RWrist			LShoulder			LElbow			LWrist		
		X1	Y1	Z1	X2	Y2	Z2	X3	Y3	Z3	X4	Y4	Z4	X5	Y5	Z5	X6	Y6	Z6	X7	Y7	Z7	X8	Y8	Z8	X9	Y9	Z9	X10	Y10	Z10	X11	Y11	Z11	X12	Y12	Z12	X13	Y13	Z13	X14	Y14	Z14	X15	Y15	Z15	X16	Y16	Z16	X17	Y17	Z17	X18	Y18	Z18	X19	Y19	Z19	X20	Y20	Z20	X21	Y21	Z21	X22	Y22	Z22
482	16.066666666666666	-1.7449265215619068	0.8009778081209741	0.7922234404283218	-1.7494844380913706	0.7760284550110057	0.6953433437310992	-1.80561577610258	0.4386338923582982	0.6515071153066531	-1.4900107888208434	0.24160827887940345	0.6729794368641832	-1.5065479124769332	0.014461642253092386	0.6654379622476239	-1.47997908719478	0.06550198836131486	0.6142544548175245	-1.4178429098699188	0.2305497231505004	0.6989202486974548	-1.741482331718326	0.7682644278487931	0.8795152744122026	-1.825115900244288	0.4356870591347164	0.8447268992481685	-1.7772356614868148	0.06533409218021986	0.8380730121325227	-1.9655709150081524	-0.01522284778289583	0.8677909990475327	-1.9650361952584345	-0.03956823271675602	0.8892544978717491	-1.749546626834461	0.008213358217061355	0.8230287028939007	-1.758633268699375	1.4545695206829503	0.7960947099673615	-1.8164500045818586	1.6873400893352646	0.8052212937871123	-1.8924456455887628	1.542160039873166	0.7515072438790135	-1.706390585882401	1.3441823594320348	0.6434884811156564	-1.7330280223937642	1.072169018561817	0.5675648447011562	-1.8205764684028833	0.8292889402048438	0.5614159050321516	-1.716768869506299	1.343192591346099	0.9760376870222879	-1.6906480077296668	1.0449336106121345	1.0112300053272563	-1.748599877070423	0.8028279199417004	1.032875199019387
483	16.1	-1.7768982777782407	0.8011581698906693	0.7972586585953223	-1.7856035011360059	0.7760139302741778	0.6999095519317023	-1.8690949778577575	0.444158719760517	0.6517514158098252	-1.5727987788100095	0.2351579141718908	0.6713961416519534	-1.6033155638025403	0.018731148458157904	0.6610607732470436	-1.5797732397090898	0.06372653383688398	0.607106513954525	-1.501533608155607	0.21912204484494646	0.6946578385796143	-1.770873747593848	0.7671636833267249	0.8846149991666313	-1.8409986377554861	0.4315874761224009	0.8486144248793271	-1.7822664526939063	0.06473341672188271	0.837203124218513	-1.969133837294932	-0.018671246253380867	0.8664190121107775	-1.9664214579488255	-0.04451188015060697	0.8864030938039922	-1.7544310711910303	0.005642713489428292	0.8270967198703394	-1.7889114592006115	1.4574780999454375	0.7999945597333443	-1.8445672188427356	1.6869233353876592	0.8010136841318801	-1.9245516491549082	1.5431781428217313	0.7498138978533709	-1.7269796209924986	1.3450965537267392	0.6511218656562994	-1.7435133239396268	1.070494341715908	0.5793017315143928	-1.8244391407256617	0.8290248576693415	0.5640166908064784	-1.7522779497282115	1.3468061693950026	0.9784908878800738	-1.7403520606184655	1.0472947298615074	1.014990515486354	-1.8117112822019088	0.8101538146268401	1.0386636626682353
484	16.133333333333333	-1.8064691856860502	0.8018694646733525	0.8020847745364115	-1.8199892737895955	0.7770245579473721	0.7036564319736129	-1.9280660606300668	0.45130171144380143	0.6521158708274293	-1.6606475472693727	0.2188041051156195	0.6694240349706555	-1.7159113078554975	0.018128622203271196	0.658631580242526	-1.6934456396054463	0.056266153721094	0.6016208110399482	-1.5890610952304443	0.19477025886906657	0.6910201186852556	-1.7981623475778485	0.7671234195903475	0.8896961069402478	-1.8524116895795169	0.42772782287764577	0.8545315457346881	-1.7873707709549567	0.06430776764275005	0.8367718881003983	-1.9749656756318488	-0.020373349284783293	0.8658305998524685	-1.9679918160130097	-0.046958204449850556	0.8845352244614703	-1.7577487705070258	0.0034816856094272547	0.8314158180527477	-1.8184025739462233	1.4591227377588745	0.8030606394123476	-1.8752116347895202	1.689328030928522	0.7923224456026183	-1.9554204773545236	1.543201853361181	0.7474949793197176	-1.7512472435013229	1.3465892047028243	0.6544961919700063	-1.7538978844469433	1.0692901751854471	0.5885263996082959	-1.8278417359568007	0.8281628081354723	0.56574381933188	-1.7851593941938781	1.3476202692582158	0.9834395967382836	-1.789700027010374	1.0503758113958437	1.0187940034580956	-1.8735093840259736	0.8189659066222832	1.0448634889828525
485	16.166666666666668	-1.8342217654381412	0.8031916597205685	0.8064624839014374	-1.8523357944695156	0.7788225181192855	0.7067073974129525	-1.9802566781406665	0.4587214206396797	0.6533242461082734	-1.751163922858944	0.19448948844577038	0.6680002717095441	-1.8373284343427656	0.013149936381139314	0.6593563229708566	-1.8134542872012482	0.0445663829913296	0.5998274299142785	-1.6779647298153315	0.1605609618793052	0.6902466536853885	-1.8236494887463823	0.7682495288553257	0.8944822766951602	-1.8595592219794628	0.424640330417516	0.8614784028953195	-1.791174707293954	0.06432648037748981	0.8366734182210194	-1.981069173358241	-0.020510075607901263	0.866933935581035	-1.9695916887257996	-0.046891100285384145	0.8841338140926035	-1.757835018989558	0.002526276485889224	0.8342527245581524	-1.8475531998297932	1.4594301841842272	0.8053816016886004	-1.9082297311998169	1.6933679507828723	0.7812274142016495	-1.9855111748249483	1.5424108175098905	0.7453982570637013	-1.7794613943007749	1.3485667525740648	0.6543269042078435	-1.7662048990590855	1.069156023833218	0.5947933025793385	-1.8327656731534787	0.8268029716887713	0.5665558034494873	-1.81572200055972	1.3457875792813085	0.990425136841471	-1.8377861627186602	1.0537830943070627	1.0234339144835194	-1.933459122925201	0.8281924675759986	1.0507579751338962
486	16.2	-1.860910226027398	0.8048813019528889	0.8101415213581515	-1.8825573875764647	0.7807293701001151	0.7092313312078433	-2.0243926576519113	0.4647631184377228	0.6556125607832416	-1.8422767575289187	0.16543911728843494	0.6676971076204982	-1.959963413936175	0.006121217482650072	0.6632250868891798	-1.9324751254831676	0.030691847821758024	0.6022611531205021	-1.7675324937811285	0.12081356381839067	0.6930236424263296	-1.8479173151894766	0.7700523957985463	0.8985537050968386	-1.8639518833137507	0.42262063788922655	0.8679987113703475	-1.7921968688334982	0.06515375068833312	0.8369023269708973	-1.9867151216976067	-0.01951165886760854	0.8699569453046071	-1.9708716160010273	-0.044397114441261924	0.885425305840091	-1.7541506325653502	0.0033248446904032684	0.8344674163289556	-1.8767401936356616	1.4584808829252751	0.8069824786697045	-1.9421644873835564	1.6972281289863378	0.7708553637565657	-2.0156073154361622	1.5411740965803715	0.7448570274009745	-1.8110405404690724	1.3507050101433882	0.6515144821543604	-1.781489003706023	1.0696685462970066	0.5985716304133674	-1.8406271134290104	0.8251480370560309	0.5663233409522754	-1.8449580912110985	1.3419691070521889	0.9979458147918024	-1.8839857998053533	1.0568200724518964	1.02900806739317	-1.9915457127046612	0.8365144877874073	1.055196051855176
